<mxfile host="Electron" modified="2024-05-07T17:53:38.076Z" agent="Mozilla/5.0 (Windows NT 10.0; Win64; x64) AppleWebKit/537.36 (KHTML, like Gecko) draw.io/24.2.5 Chrome/120.0.6099.109 Electron/28.1.0 Safari/537.36" etag="XnZ8k5Z4S-_HJgyjmwSq" version="24.2.5" type="device">
  <diagram name="Página-1" id="7GjsZorcTQt8PN_e-lTL">
    <mxGraphModel dx="3585" dy="3259" grid="1" gridSize="10" guides="1" tooltips="1" connect="1" arrows="1" fold="1" page="1" pageScale="1" pageWidth="827" pageHeight="1169" math="0" shadow="0">
      <root>
        <mxCell id="0" />
        <mxCell id="1" parent="0" />
        <mxCell id="u0QNQwv3i5jUUYgu4DxN-104" value="&lt;font style=&quot;font-size: 18px;&quot;&gt;Region - US&lt;/font&gt;" style="points=[[0,0],[0.25,0],[0.5,0],[0.75,0],[1,0],[1,0.25],[1,0.5],[1,0.75],[1,1],[0.75,1],[0.5,1],[0.25,1],[0,1],[0,0.75],[0,0.5],[0,0.25]];outlineConnect=0;gradientColor=none;html=1;whiteSpace=wrap;fontSize=12;fontStyle=0;container=1;pointerEvents=0;collapsible=0;recursiveResize=0;shape=mxgraph.aws4.group;grIcon=mxgraph.aws4.group_region;strokeColor=#00A4A6;fillColor=none;verticalAlign=top;align=left;spacingLeft=30;fontColor=#147EBA;dashed=1;" parent="1" vertex="1">
          <mxGeometry x="1230" y="-140" width="1510" height="1030" as="geometry" />
        </mxCell>
        <mxCell id="u0QNQwv3i5jUUYgu4DxN-106" value="&lt;font style=&quot;font-size: 18px;&quot;&gt;VPC&lt;/font&gt;" style="points=[[0,0],[0.25,0],[0.5,0],[0.75,0],[1,0],[1,0.25],[1,0.5],[1,0.75],[1,1],[0.75,1],[0.5,1],[0.25,1],[0,1],[0,0.75],[0,0.5],[0,0.25]];outlineConnect=0;gradientColor=none;html=1;whiteSpace=wrap;fontSize=12;fontStyle=0;container=1;pointerEvents=0;collapsible=0;recursiveResize=0;shape=mxgraph.aws4.group;grIcon=mxgraph.aws4.group_vpc2;strokeColor=#8C4FFF;fillColor=none;verticalAlign=top;align=left;spacingLeft=30;fontColor=#AAB7B8;dashed=0;" parent="u0QNQwv3i5jUUYgu4DxN-104" vertex="1">
          <mxGeometry x="50" y="90" width="1450" height="830" as="geometry" />
        </mxCell>
        <mxCell id="u0QNQwv3i5jUUYgu4DxN-89" value="&lt;font style=&quot;font-size: 18px;&quot;&gt;Private subnet&lt;/font&gt;" style="points=[[0,0],[0.25,0],[0.5,0],[0.75,0],[1,0],[1,0.25],[1,0.5],[1,0.75],[1,1],[0.75,1],[0.5,1],[0.25,1],[0,1],[0,0.75],[0,0.5],[0,0.25]];outlineConnect=0;html=1;whiteSpace=wrap;fontSize=12;fontStyle=0;container=1;pointerEvents=0;collapsible=0;recursiveResize=0;shape=mxgraph.aws4.group;grIcon=mxgraph.aws4.group_security_group;grStroke=0;verticalAlign=top;align=left;spacingLeft=30;dashed=0;fillStyle=auto;fillColor=#a20025;fontColor=#ffffff;strokeColor=#6F0000;" parent="u0QNQwv3i5jUUYgu4DxN-106" vertex="1">
          <mxGeometry x="620" y="30" width="540" height="620" as="geometry" />
        </mxCell>
        <mxCell id="u0QNQwv3i5jUUYgu4DxN-12" value="&lt;font style=&quot;font-size: 18px;&quot;&gt;Primário&lt;/font&gt;" style="text;html=1;align=center;verticalAlign=middle;resizable=0;points=[];autosize=1;labelBackgroundColor=none;" parent="u0QNQwv3i5jUUYgu4DxN-89" vertex="1">
          <mxGeometry x="410" y="310.0000000000001" width="90" height="40" as="geometry" />
        </mxCell>
        <mxCell id="u0QNQwv3i5jUUYgu4DxN-13" value="&lt;font style=&quot;font-size: 18px;&quot;&gt;Secundário - 1&lt;/font&gt;" style="text;html=1;align=center;verticalAlign=middle;resizable=0;points=[];autosize=1;labelBackgroundColor=none;" parent="u0QNQwv3i5jUUYgu4DxN-89" vertex="1">
          <mxGeometry x="376" y="150.0000000000001" width="140" height="40" as="geometry" />
        </mxCell>
        <mxCell id="u0QNQwv3i5jUUYgu4DxN-14" value="&lt;font style=&quot;font-size: 18px;&quot;&gt;Secundário - 2&lt;/font&gt;" style="text;html=1;align=center;verticalAlign=middle;resizable=0;points=[];autosize=1;labelBackgroundColor=none;" parent="u0QNQwv3i5jUUYgu4DxN-89" vertex="1">
          <mxGeometry x="376" y="509.3800000000001" width="140" height="40" as="geometry" />
        </mxCell>
        <mxCell id="u0QNQwv3i5jUUYgu4DxN-26" value="&lt;font style=&quot;font-size: 14px;&quot;&gt;Zone: us-east-1&lt;/font&gt;&lt;div&gt;&lt;font size=&quot;3&quot;&gt;Norte da Virginia&lt;/font&gt;&lt;/div&gt;" style="text;html=1;align=center;verticalAlign=middle;resizable=0;points=[];autosize=1;labelBackgroundColor=none;" parent="u0QNQwv3i5jUUYgu4DxN-89" vertex="1">
          <mxGeometry x="376" y="180.0000000000001" width="140" height="50" as="geometry" />
        </mxCell>
        <mxCell id="u0QNQwv3i5jUUYgu4DxN-28" value="&lt;font style=&quot;font-size: 14px;&quot;&gt;Zone: us-west-1&lt;/font&gt;&lt;div&gt;&lt;font size=&quot;3&quot;&gt;Califórnia&lt;/font&gt;&lt;/div&gt;" style="text;html=1;align=center;verticalAlign=middle;resizable=0;points=[];autosize=1;labelBackgroundColor=none;" parent="u0QNQwv3i5jUUYgu4DxN-89" vertex="1">
          <mxGeometry x="395" y="338.5000000000001" width="120" height="50" as="geometry" />
        </mxCell>
        <mxCell id="u0QNQwv3i5jUUYgu4DxN-31" value="&lt;font style=&quot;font-size: 14px;&quot;&gt;Zone: us-east-2&lt;br&gt;Ohio&lt;/font&gt;" style="text;html=1;align=center;verticalAlign=middle;resizable=0;points=[];autosize=1;labelBackgroundColor=none;" parent="u0QNQwv3i5jUUYgu4DxN-89" vertex="1">
          <mxGeometry x="386" y="539.3800000000001" width="120" height="50" as="geometry" />
        </mxCell>
        <mxCell id="u0QNQwv3i5jUUYgu4DxN-11" value="&lt;font style=&quot;font-size: 18px;&quot;&gt;Replica set&lt;br&gt;MongoDB&lt;/font&gt;" style="text;html=1;align=center;verticalAlign=middle;resizable=0;points=[];autosize=1;strokeColor=none;fillColor=none;labelBackgroundColor=none;" parent="u0QNQwv3i5jUUYgu4DxN-89" vertex="1">
          <mxGeometry x="326" y="60.000000000000114" width="110" height="60" as="geometry" />
        </mxCell>
        <mxCell id="u0QNQwv3i5jUUYgu4DxN-100" style="edgeStyle=orthogonalEdgeStyle;rounded=0;orthogonalLoop=1;jettySize=auto;html=1;" parent="u0QNQwv3i5jUUYgu4DxN-89" source="u0QNQwv3i5jUUYgu4DxN-97" target="u0QNQwv3i5jUUYgu4DxN-98" edge="1">
          <mxGeometry relative="1" as="geometry" />
        </mxCell>
        <mxCell id="u0QNQwv3i5jUUYgu4DxN-97" value="" style="sketch=0;points=[[0,0,0],[0.25,0,0],[0.5,0,0],[0.75,0,0],[1,0,0],[0,1,0],[0.25,1,0],[0.5,1,0],[0.75,1,0],[1,1,0],[0,0.25,0],[0,0.5,0],[0,0.75,0],[1,0.25,0],[1,0.5,0],[1,0.75,0]];outlineConnect=0;fontColor=#232F3E;fillColor=#C925D1;strokeColor=#ffffff;dashed=0;verticalLabelPosition=bottom;verticalAlign=top;align=center;html=1;fontSize=12;fontStyle=0;aspect=fixed;shape=mxgraph.aws4.resourceIcon;resIcon=mxgraph.aws4.documentdb_with_mongodb_compatibility;" parent="u0QNQwv3i5jUUYgu4DxN-89" vertex="1">
          <mxGeometry x="300" y="147" width="78" height="78" as="geometry" />
        </mxCell>
        <mxCell id="u0QNQwv3i5jUUYgu4DxN-103" style="edgeStyle=orthogonalEdgeStyle;rounded=0;orthogonalLoop=1;jettySize=auto;html=1;" parent="u0QNQwv3i5jUUYgu4DxN-89" source="u0QNQwv3i5jUUYgu4DxN-99" target="u0QNQwv3i5jUUYgu4DxN-98" edge="1">
          <mxGeometry relative="1" as="geometry" />
        </mxCell>
        <mxCell id="u0QNQwv3i5jUUYgu4DxN-99" value="" style="sketch=0;points=[[0,0,0],[0.25,0,0],[0.5,0,0],[0.75,0,0],[1,0,0],[0,1,0],[0.25,1,0],[0.5,1,0],[0.75,1,0],[1,1,0],[0,0.25,0],[0,0.5,0],[0,0.75,0],[1,0.25,0],[1,0.5,0],[1,0.75,0]];outlineConnect=0;fontColor=#232F3E;fillColor=#C925D1;strokeColor=#ffffff;dashed=0;verticalLabelPosition=bottom;verticalAlign=top;align=center;html=1;fontSize=12;fontStyle=0;aspect=fixed;shape=mxgraph.aws4.resourceIcon;resIcon=mxgraph.aws4.documentdb_with_mongodb_compatibility;" parent="u0QNQwv3i5jUUYgu4DxN-89" vertex="1">
          <mxGeometry x="300" y="506.38" width="78" height="78" as="geometry" />
        </mxCell>
        <mxCell id="u0QNQwv3i5jUUYgu4DxN-102" style="edgeStyle=orthogonalEdgeStyle;rounded=0;orthogonalLoop=1;jettySize=auto;html=1;" parent="u0QNQwv3i5jUUYgu4DxN-89" source="u0QNQwv3i5jUUYgu4DxN-98" target="u0QNQwv3i5jUUYgu4DxN-99" edge="1">
          <mxGeometry relative="1" as="geometry" />
        </mxCell>
        <mxCell id="u0QNQwv3i5jUUYgu4DxN-98" value="" style="sketch=0;points=[[0,0,0],[0.25,0,0],[0.5,0,0],[0.75,0,0],[1,0,0],[0,1,0],[0.25,1,0],[0.5,1,0],[0.75,1,0],[1,1,0],[0,0.25,0],[0,0.5,0],[0,0.75,0],[1,0.25,0],[1,0.5,0],[1,0.75,0]];outlineConnect=0;fontColor=#232F3E;fillColor=#C925D1;strokeColor=#ffffff;dashed=0;verticalLabelPosition=bottom;verticalAlign=top;align=center;html=1;fontSize=12;fontStyle=0;aspect=fixed;shape=mxgraph.aws4.resourceIcon;resIcon=mxgraph.aws4.documentdb_with_mongodb_compatibility;" parent="u0QNQwv3i5jUUYgu4DxN-89" vertex="1">
          <mxGeometry x="300" y="310" width="78" height="78" as="geometry" />
        </mxCell>
        <mxCell id="u0QNQwv3i5jUUYgu4DxN-101" style="edgeStyle=orthogonalEdgeStyle;rounded=0;orthogonalLoop=1;jettySize=auto;html=1;entryX=0.5;entryY=1;entryDx=0;entryDy=0;entryPerimeter=0;" parent="u0QNQwv3i5jUUYgu4DxN-89" source="u0QNQwv3i5jUUYgu4DxN-98" target="u0QNQwv3i5jUUYgu4DxN-97" edge="1">
          <mxGeometry relative="1" as="geometry" />
        </mxCell>
        <mxCell id="u0QNQwv3i5jUUYgu4DxN-190" style="edgeStyle=orthogonalEdgeStyle;rounded=0;orthogonalLoop=1;jettySize=auto;html=1;" parent="u0QNQwv3i5jUUYgu4DxN-89" source="u0QNQwv3i5jUUYgu4DxN-183" target="u0QNQwv3i5jUUYgu4DxN-98" edge="1">
          <mxGeometry relative="1" as="geometry" />
        </mxCell>
        <mxCell id="u0QNQwv3i5jUUYgu4DxN-183" value="" style="sketch=0;aspect=fixed;pointerEvents=1;shadow=0;dashed=0;html=1;strokeColor=none;labelPosition=center;verticalLabelPosition=bottom;verticalAlign=top;align=center;fillColor=#00188D;shape=mxgraph.mscae.enterprise.application_server" parent="u0QNQwv3i5jUUYgu4DxN-89" vertex="1">
          <mxGeometry x="90" y="286.69" width="107.17" height="124.62" as="geometry" />
        </mxCell>
        <mxCell id="u0QNQwv3i5jUUYgu4DxN-187" value="&lt;font style=&quot;font-size: 18px;&quot;&gt;.NET Core&lt;/font&gt;&lt;div&gt;&lt;font size=&quot;3&quot;&gt;Backend&lt;/font&gt;&lt;/div&gt;" style="text;html=1;align=center;verticalAlign=middle;resizable=0;points=[];autosize=1;strokeColor=none;fillColor=none;" parent="u0QNQwv3i5jUUYgu4DxN-89" vertex="1">
          <mxGeometry x="87.17000000000007" y="440" width="110" height="50" as="geometry" />
        </mxCell>
        <mxCell id="u0QNQwv3i5jUUYgu4DxN-191" style="edgeStyle=orthogonalEdgeStyle;rounded=0;orthogonalLoop=1;jettySize=auto;html=1;entryX=0;entryY=0.5;entryDx=0;entryDy=0;entryPerimeter=0;" parent="u0QNQwv3i5jUUYgu4DxN-89" source="u0QNQwv3i5jUUYgu4DxN-183" target="u0QNQwv3i5jUUYgu4DxN-97" edge="1">
          <mxGeometry relative="1" as="geometry" />
        </mxCell>
        <mxCell id="u0QNQwv3i5jUUYgu4DxN-192" style="edgeStyle=orthogonalEdgeStyle;rounded=0;orthogonalLoop=1;jettySize=auto;html=1;entryX=0;entryY=0.5;entryDx=0;entryDy=0;entryPerimeter=0;" parent="u0QNQwv3i5jUUYgu4DxN-89" source="u0QNQwv3i5jUUYgu4DxN-183" target="u0QNQwv3i5jUUYgu4DxN-99" edge="1">
          <mxGeometry relative="1" as="geometry" />
        </mxCell>
        <mxCell id="u0QNQwv3i5jUUYgu4DxN-94" value="&lt;font style=&quot;font-size: 18px;&quot;&gt;Public subnet&lt;/font&gt;" style="points=[[0,0],[0.25,0],[0.5,0],[0.75,0],[1,0],[1,0.25],[1,0.5],[1,0.75],[1,1],[0.75,1],[0.5,1],[0.25,1],[0,1],[0,0.75],[0,0.5],[0,0.25]];outlineConnect=0;html=1;whiteSpace=wrap;fontSize=12;fontStyle=0;container=1;pointerEvents=0;collapsible=0;recursiveResize=0;shape=mxgraph.aws4.group;grIcon=mxgraph.aws4.group_security_group;grStroke=0;verticalAlign=top;align=left;spacingLeft=30;dashed=0;fillColor=#60a917;fontColor=#ffffff;strokeColor=#2D7600;" parent="u0QNQwv3i5jUUYgu4DxN-106" vertex="1">
          <mxGeometry x="20" y="200" width="400" height="380" as="geometry" />
        </mxCell>
        <mxCell id="u0QNQwv3i5jUUYgu4DxN-181" value="&lt;font style=&quot;font-size: 18px;&quot;&gt;Node.js&lt;/font&gt;&lt;div&gt;&lt;font size=&quot;3&quot;&gt;Front-end&lt;/font&gt;&lt;/div&gt;" style="text;html=1;align=center;verticalAlign=middle;resizable=0;points=[];autosize=1;strokeColor=none;fillColor=none;" parent="u0QNQwv3i5jUUYgu4DxN-94" vertex="1">
          <mxGeometry x="151.75000000000006" y="240" width="90" height="50" as="geometry" />
        </mxCell>
        <mxCell id="u0QNQwv3i5jUUYgu4DxN-184" value="" style="sketch=0;aspect=fixed;pointerEvents=1;shadow=0;dashed=0;html=1;strokeColor=none;labelPosition=center;verticalLabelPosition=bottom;verticalAlign=top;align=center;fillColor=#00188D;shape=mxgraph.mscae.enterprise.web_server" parent="u0QNQwv3i5jUUYgu4DxN-94" vertex="1">
          <mxGeometry x="160.65" y="131.5" width="72.2" height="95" as="geometry" />
        </mxCell>
        <mxCell id="u0QNQwv3i5jUUYgu4DxN-186" style="edgeStyle=orthogonalEdgeStyle;rounded=0;orthogonalLoop=1;jettySize=auto;html=1;" parent="u0QNQwv3i5jUUYgu4DxN-106" source="u0QNQwv3i5jUUYgu4DxN-171" target="u0QNQwv3i5jUUYgu4DxN-183" edge="1">
          <mxGeometry relative="1" as="geometry" />
        </mxCell>
        <mxCell id="u0QNQwv3i5jUUYgu4DxN-171" value="" style="sketch=0;outlineConnect=0;fontColor=#232F3E;gradientColor=none;fillColor=#8C4FFF;strokeColor=none;dashed=0;verticalLabelPosition=bottom;verticalAlign=top;align=center;html=1;fontSize=12;fontStyle=0;aspect=fixed;pointerEvents=1;shape=mxgraph.aws4.application_load_balancer;" parent="u0QNQwv3i5jUUYgu4DxN-106" vertex="1">
          <mxGeometry x="480" y="340" width="78" height="78" as="geometry" />
        </mxCell>
        <mxCell id="u0QNQwv3i5jUUYgu4DxN-172" value="&lt;font style=&quot;font-size: 18px;&quot;&gt;Application&lt;br&gt;Load Balancer&lt;/font&gt;" style="text;html=1;align=center;verticalAlign=middle;resizable=0;points=[];autosize=1;strokeColor=none;fillColor=none;" parent="u0QNQwv3i5jUUYgu4DxN-106" vertex="1">
          <mxGeometry x="449" y="260" width="140" height="60" as="geometry" />
        </mxCell>
        <mxCell id="u0QNQwv3i5jUUYgu4DxN-179" value="Node.js para .NET Core&lt;br&gt;HTTP / HTTPS" style="text;html=1;align=center;verticalAlign=middle;resizable=0;points=[];autosize=1;strokeColor=none;fillColor=none;" parent="u0QNQwv3i5jUUYgu4DxN-106" vertex="1">
          <mxGeometry x="444" y="423" width="150" height="40" as="geometry" />
        </mxCell>
        <mxCell id="u0QNQwv3i5jUUYgu4DxN-185" style="edgeStyle=orthogonalEdgeStyle;rounded=0;orthogonalLoop=1;jettySize=auto;html=1;" parent="u0QNQwv3i5jUUYgu4DxN-106" source="u0QNQwv3i5jUUYgu4DxN-184" target="u0QNQwv3i5jUUYgu4DxN-171" edge="1">
          <mxGeometry relative="1" as="geometry" />
        </mxCell>
        <mxCell id="u0QNQwv3i5jUUYgu4DxN-209" value="&lt;font style=&quot;font-size: 18px;&quot;&gt;Disponibilidade: Https&amp;nbsp;&lt;br&gt;Integridade: pneustore.com.br (exemplo)&lt;/font&gt;&lt;div&gt;&lt;font style=&quot;font-size: 18px;&quot;&gt;Confidencialidade: Cada cliente tem seu login para realizar compra&lt;/font&gt;&lt;/div&gt;" style="text;html=1;align=center;verticalAlign=middle;resizable=0;points=[];autosize=1;strokeColor=none;fillColor=none;" parent="u0QNQwv3i5jUUYgu4DxN-106" vertex="1">
          <mxGeometry y="110" width="560" height="80" as="geometry" />
        </mxCell>
        <mxCell id="u0QNQwv3i5jUUYgu4DxN-202" style="edgeStyle=orthogonalEdgeStyle;rounded=0;orthogonalLoop=1;jettySize=auto;html=1;entryX=0.5;entryY=0;entryDx=0;entryDy=0;entryPerimeter=0;" parent="u0QNQwv3i5jUUYgu4DxN-106" source="u0QNQwv3i5jUUYgu4DxN-209" target="u0QNQwv3i5jUUYgu4DxN-184" edge="1">
          <mxGeometry relative="1" as="geometry" />
        </mxCell>
        <mxCell id="u0QNQwv3i5jUUYgu4DxN-200" style="edgeStyle=orthogonalEdgeStyle;rounded=0;orthogonalLoop=1;jettySize=auto;html=1;" parent="1" source="u0QNQwv3i5jUUYgu4DxN-121" target="u0QNQwv3i5jUUYgu4DxN-194" edge="1">
          <mxGeometry relative="1" as="geometry" />
        </mxCell>
        <mxCell id="u0QNQwv3i5jUUYgu4DxN-121" value="&lt;font style=&quot;font-size: 18px;&quot;&gt;DMZ-Interna (TI)&lt;/font&gt;" style="swimlane;whiteSpace=wrap;html=1;" parent="1" vertex="1">
          <mxGeometry x="50" y="110" width="1016" height="770" as="geometry">
            <mxRectangle x="104" y="270" width="170" height="40" as="alternateBounds" />
          </mxGeometry>
        </mxCell>
        <mxCell id="u0QNQwv3i5jUUYgu4DxN-142" style="edgeStyle=orthogonalEdgeStyle;rounded=0;orthogonalLoop=1;jettySize=auto;html=1;" parent="u0QNQwv3i5jUUYgu4DxN-121" source="u0QNQwv3i5jUUYgu4DxN-112" target="u0QNQwv3i5jUUYgu4DxN-124" edge="1">
          <mxGeometry relative="1" as="geometry" />
        </mxCell>
        <mxCell id="u0QNQwv3i5jUUYgu4DxN-112" value="" style="verticalLabelPosition=bottom;sketch=0;aspect=fixed;html=1;verticalAlign=top;strokeColor=none;align=center;outlineConnect=0;shape=mxgraph.citrix.directory_server;" parent="u0QNQwv3i5jUUYgu4DxN-121" vertex="1">
          <mxGeometry x="93.75" y="240" width="65" height="88.5" as="geometry" />
        </mxCell>
        <mxCell id="u0QNQwv3i5jUUYgu4DxN-157" style="edgeStyle=orthogonalEdgeStyle;rounded=0;orthogonalLoop=1;jettySize=auto;html=1;" parent="u0QNQwv3i5jUUYgu4DxN-121" source="u0QNQwv3i5jUUYgu4DxN-113" target="u0QNQwv3i5jUUYgu4DxN-125" edge="1">
          <mxGeometry relative="1" as="geometry" />
        </mxCell>
        <mxCell id="u0QNQwv3i5jUUYgu4DxN-113" value="" style="verticalLabelPosition=bottom;sketch=0;aspect=fixed;html=1;verticalAlign=top;strokeColor=none;align=center;outlineConnect=0;shape=mxgraph.citrix.file_server;" parent="u0QNQwv3i5jUUYgu4DxN-121" vertex="1">
          <mxGeometry x="87.75" y="360" width="71" height="97" as="geometry" />
        </mxCell>
        <mxCell id="u0QNQwv3i5jUUYgu4DxN-154" style="edgeStyle=orthogonalEdgeStyle;rounded=0;orthogonalLoop=1;jettySize=auto;html=1;" parent="u0QNQwv3i5jUUYgu4DxN-121" source="u0QNQwv3i5jUUYgu4DxN-114" target="u0QNQwv3i5jUUYgu4DxN-134" edge="1">
          <mxGeometry relative="1" as="geometry" />
        </mxCell>
        <mxCell id="u0QNQwv3i5jUUYgu4DxN-114" value="" style="verticalLabelPosition=bottom;sketch=0;aspect=fixed;html=1;verticalAlign=top;strokeColor=none;align=center;outlineConnect=0;shape=mxgraph.citrix.pbx_server;" parent="u0QNQwv3i5jUUYgu4DxN-121" vertex="1">
          <mxGeometry x="87.75" y="480" width="65" height="85" as="geometry" />
        </mxCell>
        <mxCell id="u0QNQwv3i5jUUYgu4DxN-161" style="edgeStyle=orthogonalEdgeStyle;rounded=0;orthogonalLoop=1;jettySize=auto;html=1;" parent="u0QNQwv3i5jUUYgu4DxN-121" source="u0QNQwv3i5jUUYgu4DxN-115" target="u0QNQwv3i5jUUYgu4DxN-135" edge="1">
          <mxGeometry relative="1" as="geometry" />
        </mxCell>
        <mxCell id="u0QNQwv3i5jUUYgu4DxN-115" value="" style="verticalLabelPosition=bottom;sketch=0;aspect=fixed;html=1;verticalAlign=top;strokeColor=none;align=center;outlineConnect=0;shape=mxgraph.citrix.smtp_server;" parent="u0QNQwv3i5jUUYgu4DxN-121" vertex="1">
          <mxGeometry x="85.25" y="600" width="76" height="92" as="geometry" />
        </mxCell>
        <mxCell id="u0QNQwv3i5jUUYgu4DxN-116" value="&lt;font style=&quot;font-size: 18px;&quot;&gt;AD01 VMServer&lt;/font&gt;&lt;div&gt;&lt;font style=&quot;font-size: 18px;&quot;&gt;172.17.1.2&lt;/font&gt;&lt;/div&gt;" style="text;html=1;align=center;verticalAlign=middle;resizable=0;points=[];autosize=1;strokeColor=none;fillColor=none;" parent="u0QNQwv3i5jUUYgu4DxN-121" vertex="1">
          <mxGeometry x="170" y="220" width="150" height="60" as="geometry" />
        </mxCell>
        <mxCell id="u0QNQwv3i5jUUYgu4DxN-117" value="&lt;font style=&quot;font-size: 18px;&quot;&gt;File01 VMServer&lt;/font&gt;&lt;div&gt;&lt;font style=&quot;font-size: 18px;&quot;&gt;172.17.1.3&lt;/font&gt;&lt;/div&gt;" style="text;html=1;align=center;verticalAlign=middle;resizable=0;points=[];autosize=1;strokeColor=none;fillColor=none;" parent="u0QNQwv3i5jUUYgu4DxN-121" vertex="1">
          <mxGeometry x="152.75" y="340" width="160" height="60" as="geometry" />
        </mxCell>
        <mxCell id="u0QNQwv3i5jUUYgu4DxN-118" value="&lt;font style=&quot;font-size: 18px;&quot;&gt;SMTP01 VMServer&lt;/font&gt;&lt;div&gt;&lt;font style=&quot;font-size: 18px;&quot;&gt;172.17.1.4&lt;/font&gt;&lt;/div&gt;" style="text;html=1;align=center;verticalAlign=middle;resizable=0;points=[];autosize=1;strokeColor=none;fillColor=none;" parent="u0QNQwv3i5jUUYgu4DxN-121" vertex="1">
          <mxGeometry x="155" y="580" width="180" height="60" as="geometry" />
        </mxCell>
        <mxCell id="u0QNQwv3i5jUUYgu4DxN-119" value="&lt;font style=&quot;font-size: 18px;&quot;&gt;Print01 VMServer&lt;/font&gt;&lt;div&gt;&lt;span style=&quot;font-size: 18px;&quot;&gt;172.17.1.5&lt;/span&gt;&lt;/div&gt;" style="text;html=1;align=center;verticalAlign=middle;resizable=0;points=[];autosize=1;strokeColor=none;fillColor=none;" parent="u0QNQwv3i5jUUYgu4DxN-121" vertex="1">
          <mxGeometry x="158.75" y="457" width="170" height="60" as="geometry" />
        </mxCell>
        <mxCell id="u0QNQwv3i5jUUYgu4DxN-123" value="&lt;font style=&quot;font-size: 14px;&quot;&gt;Rede interna: 172.17.1.0/24&lt;/font&gt;&lt;div&gt;&lt;font style=&quot;font-size: 14px;&quot;&gt;VLAN da TI&lt;/font&gt;&lt;/div&gt;&lt;div&gt;&lt;font style=&quot;font-size: 14px;&quot;&gt;&lt;br&gt;&lt;/font&gt;&lt;/div&gt;" style="text;html=1;align=center;verticalAlign=middle;resizable=0;points=[];autosize=1;strokeColor=none;fillColor=none;" parent="u0QNQwv3i5jUUYgu4DxN-121" vertex="1">
          <mxGeometry x="400" y="35" width="200" height="60" as="geometry" />
        </mxCell>
        <mxCell id="u0QNQwv3i5jUUYgu4DxN-143" style="edgeStyle=orthogonalEdgeStyle;rounded=0;orthogonalLoop=1;jettySize=auto;html=1;" parent="u0QNQwv3i5jUUYgu4DxN-121" source="u0QNQwv3i5jUUYgu4DxN-124" target="u0QNQwv3i5jUUYgu4DxN-132" edge="1">
          <mxGeometry relative="1" as="geometry" />
        </mxCell>
        <mxCell id="u0QNQwv3i5jUUYgu4DxN-145" style="edgeStyle=orthogonalEdgeStyle;rounded=0;orthogonalLoop=1;jettySize=auto;html=1;" parent="u0QNQwv3i5jUUYgu4DxN-121" source="u0QNQwv3i5jUUYgu4DxN-124" target="u0QNQwv3i5jUUYgu4DxN-112" edge="1">
          <mxGeometry relative="1" as="geometry" />
        </mxCell>
        <mxCell id="u0QNQwv3i5jUUYgu4DxN-124" value="" style="verticalLabelPosition=bottom;sketch=0;aspect=fixed;html=1;verticalAlign=top;strokeColor=none;align=center;outlineConnect=0;shape=mxgraph.citrix.directory_server;" parent="u0QNQwv3i5jUUYgu4DxN-121" vertex="1">
          <mxGeometry x="368.5" y="240" width="65" height="88.5" as="geometry" />
        </mxCell>
        <mxCell id="u0QNQwv3i5jUUYgu4DxN-158" style="edgeStyle=orthogonalEdgeStyle;rounded=0;orthogonalLoop=1;jettySize=auto;html=1;" parent="u0QNQwv3i5jUUYgu4DxN-121" source="u0QNQwv3i5jUUYgu4DxN-125" target="u0QNQwv3i5jUUYgu4DxN-133" edge="1">
          <mxGeometry relative="1" as="geometry" />
        </mxCell>
        <mxCell id="u0QNQwv3i5jUUYgu4DxN-160" style="edgeStyle=orthogonalEdgeStyle;rounded=0;orthogonalLoop=1;jettySize=auto;html=1;" parent="u0QNQwv3i5jUUYgu4DxN-121" source="u0QNQwv3i5jUUYgu4DxN-125" target="u0QNQwv3i5jUUYgu4DxN-113" edge="1">
          <mxGeometry relative="1" as="geometry" />
        </mxCell>
        <mxCell id="u0QNQwv3i5jUUYgu4DxN-125" value="" style="verticalLabelPosition=bottom;sketch=0;aspect=fixed;html=1;verticalAlign=top;strokeColor=none;align=center;outlineConnect=0;shape=mxgraph.citrix.file_server;" parent="u0QNQwv3i5jUUYgu4DxN-121" vertex="1">
          <mxGeometry x="362.5" y="360" width="71" height="97" as="geometry" />
        </mxCell>
        <mxCell id="u0QNQwv3i5jUUYgu4DxN-128" value="&lt;font style=&quot;font-size: 18px;&quot;&gt;AD02 VMServer&lt;/font&gt;&lt;div&gt;&lt;font style=&quot;font-size: 18px;&quot;&gt;172.17.1.12&lt;/font&gt;&lt;/div&gt;" style="text;html=1;align=center;verticalAlign=middle;resizable=0;points=[];autosize=1;strokeColor=none;fillColor=none;" parent="u0QNQwv3i5jUUYgu4DxN-121" vertex="1">
          <mxGeometry x="433.5" y="220" width="150" height="60" as="geometry" />
        </mxCell>
        <mxCell id="u0QNQwv3i5jUUYgu4DxN-129" value="&lt;font style=&quot;font-size: 18px;&quot;&gt;File02 VMServer&lt;/font&gt;&lt;div&gt;&lt;font style=&quot;font-size: 18px;&quot;&gt;172.17.1.13&lt;/font&gt;&lt;/div&gt;" style="text;html=1;align=center;verticalAlign=middle;resizable=0;points=[];autosize=1;strokeColor=none;fillColor=none;" parent="u0QNQwv3i5jUUYgu4DxN-121" vertex="1">
          <mxGeometry x="428.5" y="340" width="160" height="60" as="geometry" />
        </mxCell>
        <mxCell id="u0QNQwv3i5jUUYgu4DxN-144" style="edgeStyle=orthogonalEdgeStyle;rounded=0;orthogonalLoop=1;jettySize=auto;html=1;" parent="u0QNQwv3i5jUUYgu4DxN-121" source="u0QNQwv3i5jUUYgu4DxN-132" target="u0QNQwv3i5jUUYgu4DxN-124" edge="1">
          <mxGeometry relative="1" as="geometry" />
        </mxCell>
        <mxCell id="u0QNQwv3i5jUUYgu4DxN-132" value="" style="verticalLabelPosition=bottom;sketch=0;aspect=fixed;html=1;verticalAlign=top;strokeColor=none;align=center;outlineConnect=0;shape=mxgraph.citrix.directory_server;" parent="u0QNQwv3i5jUUYgu4DxN-121" vertex="1">
          <mxGeometry x="658.5" y="240" width="65" height="88.5" as="geometry" />
        </mxCell>
        <mxCell id="u0QNQwv3i5jUUYgu4DxN-159" style="edgeStyle=orthogonalEdgeStyle;rounded=0;orthogonalLoop=1;jettySize=auto;html=1;" parent="u0QNQwv3i5jUUYgu4DxN-121" source="u0QNQwv3i5jUUYgu4DxN-133" target="u0QNQwv3i5jUUYgu4DxN-125" edge="1">
          <mxGeometry relative="1" as="geometry" />
        </mxCell>
        <mxCell id="u0QNQwv3i5jUUYgu4DxN-133" value="" style="verticalLabelPosition=bottom;sketch=0;aspect=fixed;html=1;verticalAlign=top;strokeColor=none;align=center;outlineConnect=0;shape=mxgraph.citrix.file_server;" parent="u0QNQwv3i5jUUYgu4DxN-121" vertex="1">
          <mxGeometry x="652.5" y="360" width="71" height="97" as="geometry" />
        </mxCell>
        <mxCell id="u0QNQwv3i5jUUYgu4DxN-155" style="edgeStyle=orthogonalEdgeStyle;rounded=0;orthogonalLoop=1;jettySize=auto;html=1;" parent="u0QNQwv3i5jUUYgu4DxN-121" source="u0QNQwv3i5jUUYgu4DxN-134" target="u0QNQwv3i5jUUYgu4DxN-114" edge="1">
          <mxGeometry relative="1" as="geometry" />
        </mxCell>
        <mxCell id="u0QNQwv3i5jUUYgu4DxN-134" value="" style="verticalLabelPosition=bottom;sketch=0;aspect=fixed;html=1;verticalAlign=top;strokeColor=none;align=center;outlineConnect=0;shape=mxgraph.citrix.pbx_server;" parent="u0QNQwv3i5jUUYgu4DxN-121" vertex="1">
          <mxGeometry x="652.5" y="480" width="65" height="85" as="geometry" />
        </mxCell>
        <mxCell id="u0QNQwv3i5jUUYgu4DxN-162" style="edgeStyle=orthogonalEdgeStyle;rounded=0;orthogonalLoop=1;jettySize=auto;html=1;" parent="u0QNQwv3i5jUUYgu4DxN-121" source="u0QNQwv3i5jUUYgu4DxN-135" target="u0QNQwv3i5jUUYgu4DxN-115" edge="1">
          <mxGeometry relative="1" as="geometry" />
        </mxCell>
        <mxCell id="u0QNQwv3i5jUUYgu4DxN-135" value="" style="verticalLabelPosition=bottom;sketch=0;aspect=fixed;html=1;verticalAlign=top;strokeColor=none;align=center;outlineConnect=0;shape=mxgraph.citrix.smtp_server;" parent="u0QNQwv3i5jUUYgu4DxN-121" vertex="1">
          <mxGeometry x="650" y="600" width="76" height="92" as="geometry" />
        </mxCell>
        <mxCell id="u0QNQwv3i5jUUYgu4DxN-136" value="&lt;font style=&quot;font-size: 18px;&quot;&gt;AD03 Server&lt;/font&gt;&lt;div&gt;&lt;font style=&quot;font-size: 18px;&quot;&gt;172.17.1.102&lt;/font&gt;&lt;/div&gt;" style="text;html=1;align=center;verticalAlign=middle;resizable=0;points=[];autosize=1;strokeColor=none;fillColor=none;" parent="u0QNQwv3i5jUUYgu4DxN-121" vertex="1">
          <mxGeometry x="729.5" y="220" width="130" height="60" as="geometry" />
        </mxCell>
        <mxCell id="u0QNQwv3i5jUUYgu4DxN-137" value="&lt;font style=&quot;font-size: 18px;&quot;&gt;File03 Server&lt;/font&gt;&lt;div&gt;&lt;font style=&quot;font-size: 18px;&quot;&gt;172.17.1.103&lt;/font&gt;&lt;/div&gt;" style="text;html=1;align=center;verticalAlign=middle;resizable=0;points=[];autosize=1;strokeColor=none;fillColor=none;" parent="u0QNQwv3i5jUUYgu4DxN-121" vertex="1">
          <mxGeometry x="717.5" y="340" width="130" height="60" as="geometry" />
        </mxCell>
        <mxCell id="u0QNQwv3i5jUUYgu4DxN-138" value="&lt;font style=&quot;font-size: 18px;&quot;&gt;SMTP02 Server&lt;/font&gt;&lt;div&gt;&lt;font style=&quot;font-size: 18px;&quot;&gt;172.17.1.104&lt;/font&gt;&lt;/div&gt;" style="text;html=1;align=center;verticalAlign=middle;resizable=0;points=[];autosize=1;strokeColor=none;fillColor=none;" parent="u0QNQwv3i5jUUYgu4DxN-121" vertex="1">
          <mxGeometry x="717.5" y="580" width="150" height="60" as="geometry" />
        </mxCell>
        <mxCell id="u0QNQwv3i5jUUYgu4DxN-139" value="&lt;font style=&quot;font-size: 18px;&quot;&gt;Print02 Server&lt;/font&gt;&lt;div&gt;&lt;span style=&quot;font-size: 18px;&quot;&gt;172.17.1.105&lt;/span&gt;&lt;/div&gt;" style="text;html=1;align=center;verticalAlign=middle;resizable=0;points=[];autosize=1;strokeColor=none;fillColor=none;" parent="u0QNQwv3i5jUUYgu4DxN-121" vertex="1">
          <mxGeometry x="730" y="457" width="140" height="60" as="geometry" />
        </mxCell>
        <mxCell id="u0QNQwv3i5jUUYgu4DxN-152" style="edgeStyle=orthogonalEdgeStyle;rounded=0;orthogonalLoop=1;jettySize=auto;html=1;" parent="u0QNQwv3i5jUUYgu4DxN-121" source="u0QNQwv3i5jUUYgu4DxN-146" target="u0QNQwv3i5jUUYgu4DxN-132" edge="1">
          <mxGeometry relative="1" as="geometry" />
        </mxCell>
        <mxCell id="u0QNQwv3i5jUUYgu4DxN-146" value="&lt;font style=&quot;font-size: 18px;&quot;&gt;Servidores Físicos&lt;/font&gt;" style="text;html=1;align=center;verticalAlign=middle;resizable=0;points=[];autosize=1;strokeColor=none;fillColor=none;" parent="u0QNQwv3i5jUUYgu4DxN-121" vertex="1">
          <mxGeometry x="677.5" y="80" width="170" height="40" as="geometry" />
        </mxCell>
        <mxCell id="u0QNQwv3i5jUUYgu4DxN-150" style="edgeStyle=orthogonalEdgeStyle;rounded=0;orthogonalLoop=1;jettySize=auto;html=1;" parent="u0QNQwv3i5jUUYgu4DxN-121" source="u0QNQwv3i5jUUYgu4DxN-147" target="u0QNQwv3i5jUUYgu4DxN-112" edge="1">
          <mxGeometry relative="1" as="geometry" />
        </mxCell>
        <mxCell id="u0QNQwv3i5jUUYgu4DxN-147" value="&lt;font style=&quot;font-size: 18px;&quot;&gt;Servidores Virtuais - VMware&lt;/font&gt;" style="text;html=1;align=center;verticalAlign=middle;resizable=0;points=[];autosize=1;strokeColor=none;fillColor=none;" parent="u0QNQwv3i5jUUYgu4DxN-121" vertex="1">
          <mxGeometry x="208.5" y="80" width="260" height="40" as="geometry" />
        </mxCell>
        <mxCell id="u0QNQwv3i5jUUYgu4DxN-148" style="edgeStyle=orthogonalEdgeStyle;rounded=0;orthogonalLoop=1;jettySize=auto;html=1;" parent="u0QNQwv3i5jUUYgu4DxN-121" source="u0QNQwv3i5jUUYgu4DxN-147" target="u0QNQwv3i5jUUYgu4DxN-124" edge="1">
          <mxGeometry relative="1" as="geometry">
            <Array as="points">
              <mxPoint x="338" y="130" />
              <mxPoint x="400" y="130" />
            </Array>
          </mxGeometry>
        </mxCell>
        <mxCell id="u0QNQwv3i5jUUYgu4DxN-156" value="&lt;p class=&quot;MsoNormal&quot;&gt;&lt;/p&gt;&lt;div style=&quot;&quot;&gt;&lt;br&gt;&lt;/div&gt;&lt;p&gt;&lt;/p&gt;&lt;p class=&quot;MsoNormal&quot;&gt;&lt;/p&gt;" style="text;html=1;align=center;verticalAlign=middle;resizable=0;points=[];autosize=1;strokeColor=none;fillColor=none;" parent="1" vertex="1">
          <mxGeometry x="548" y="925" width="20" height="50" as="geometry" />
        </mxCell>
        <mxCell id="u0QNQwv3i5jUUYgu4DxN-201" style="edgeStyle=orthogonalEdgeStyle;rounded=0;orthogonalLoop=1;jettySize=auto;html=1;entryX=0;entryY=0.5;entryDx=0;entryDy=0;" parent="1" source="u0QNQwv3i5jUUYgu4DxN-194" target="u0QNQwv3i5jUUYgu4DxN-196" edge="1">
          <mxGeometry relative="1" as="geometry" />
        </mxCell>
        <mxCell id="u0QNQwv3i5jUUYgu4DxN-194" value="" style="sketch=0;points=[[0.015,0.015,0],[0.985,0.015,0],[0.985,0.985,0],[0.015,0.985,0],[0.25,0,0],[0.5,0,0],[0.75,0,0],[1,0.25,0],[1,0.5,0],[1,0.75,0],[0.75,1,0],[0.5,1,0],[0.25,1,0],[0,0.75,0],[0,0.5,0],[0,0.25,0]];verticalLabelPosition=bottom;html=1;verticalAlign=top;aspect=fixed;align=center;pointerEvents=1;shape=mxgraph.cisco19.rect;prIcon=web_application_firewall;fillColor=#FAFAFA;strokeColor=#005073;" parent="1" vertex="1">
          <mxGeometry x="440" y="-160" width="179.2" height="140" as="geometry" />
        </mxCell>
        <mxCell id="u0QNQwv3i5jUUYgu4DxN-212" style="edgeStyle=orthogonalEdgeStyle;rounded=0;orthogonalLoop=1;jettySize=auto;html=1;" parent="1" source="u0QNQwv3i5jUUYgu4DxN-196" target="u0QNQwv3i5jUUYgu4DxN-89" edge="1">
          <mxGeometry relative="1" as="geometry" />
        </mxCell>
        <mxCell id="u0QNQwv3i5jUUYgu4DxN-196" value="" style="image;aspect=fixed;perimeter=ellipsePerimeter;html=1;align=center;shadow=0;dashed=0;spacingTop=3;image=img/lib/active_directory/internet_cloud.svg;" parent="1" vertex="1">
          <mxGeometry x="900" y="-470" width="269.84" height="170" as="geometry" />
        </mxCell>
        <mxCell id="u0QNQwv3i5jUUYgu4DxN-197" value="&lt;font style=&quot;font-size: 18px;&quot;&gt;Firewall da empresa&lt;/font&gt;" style="text;html=1;align=center;verticalAlign=middle;resizable=0;points=[];autosize=1;strokeColor=none;fillColor=none;" parent="1" vertex="1">
          <mxGeometry x="434.6" y="-200" width="190" height="40" as="geometry" />
        </mxCell>
        <mxCell id="u0QNQwv3i5jUUYgu4DxN-198" value="&lt;font style=&quot;font-size: 18px;&quot;&gt;Internet&lt;/font&gt;" style="text;html=1;align=center;verticalAlign=middle;resizable=0;points=[];autosize=1;strokeColor=none;fillColor=none;" parent="1" vertex="1">
          <mxGeometry x="994.92" y="-530" width="80" height="40" as="geometry" />
        </mxCell>
        <mxCell id="u0QNQwv3i5jUUYgu4DxN-205" value="" style="edgeStyle=orthogonalEdgeStyle;rounded=0;orthogonalLoop=1;jettySize=auto;html=1;entryX=0.5;entryY=0;entryDx=0;entryDy=0;entryPerimeter=0;" parent="1" edge="1">
          <mxGeometry relative="1" as="geometry">
            <mxPoint x="1259.9999999999993" y="-385" as="sourcePoint" />
            <mxPoint x="1590.1599999999996" y="-280" as="targetPoint" />
          </mxGeometry>
        </mxCell>
        <mxCell id="u0QNQwv3i5jUUYgu4DxN-211" style="edgeStyle=orthogonalEdgeStyle;rounded=0;orthogonalLoop=1;jettySize=auto;html=1;" parent="1" source="u0QNQwv3i5jUUYgu4DxN-203" target="u0QNQwv3i5jUUYgu4DxN-209" edge="1">
          <mxGeometry relative="1" as="geometry" />
        </mxCell>
        <mxCell id="u0QNQwv3i5jUUYgu4DxN-203" value="&lt;font style=&quot;font-size: 18px;&quot;&gt;Qualquer um tem acesso&lt;/font&gt;" style="text;html=1;align=center;verticalAlign=middle;resizable=0;points=[];autosize=1;strokeColor=none;fillColor=none;" parent="1" vertex="1">
          <mxGeometry x="1480" y="-280" width="220" height="40" as="geometry" />
        </mxCell>
        <mxCell id="u0QNQwv3i5jUUYgu4DxN-206" value="&lt;font style=&quot;font-size: 18px;&quot;&gt;Apenas os resposáveis da aplicação que foram liberados pela TI&lt;/font&gt;&lt;div&gt;&lt;span style=&quot;font-size: 18px;&quot;&gt;através de chamado para configuração do e-commerce&lt;/span&gt;&lt;/div&gt;" style="text;html=1;align=center;verticalAlign=middle;resizable=0;points=[];autosize=1;strokeColor=none;fillColor=none;" parent="1" vertex="1">
          <mxGeometry x="1895" y="-290" width="540" height="60" as="geometry" />
        </mxCell>
      </root>
    </mxGraphModel>
  </diagram>
</mxfile>
